<svg width="30" height="30" viewBox="0 0 30 30" fill="none" xmlns="http://www.w3.org/2000/svg">
<g clip-path="url(#clip0)">
<path d="M0.479552 16.1654L11.3136 26.9997C11.6229 27.309 12.035 27.4788 12.4746 27.4788C12.9146 27.4788 13.3265 27.3088 13.6358 26.9997L14.6194 26.0158C14.9284 25.7071 15.0987 25.2946 15.0987 24.8549C15.0987 24.4154 14.9284 23.989 14.6194 23.6803L8.29899 17.3459L28.3793 17.3459C29.2846 17.3459 30 16.6371 30 15.7315L30 14.3406C30 13.435 29.2846 12.6547 28.3793 12.6547L8.22728 12.6547L14.6192 6.28503C14.9282 5.97576 15.0984 5.57455 15.0984 5.13479C15.0984 4.69553 14.9282 4.28846 14.6192 3.97944L13.6355 2.99871C13.3263 2.68945 12.9143 2.52091 12.4743 2.52091C12.0348 2.52091 11.6226 2.69164 11.3134 3.00091L0.479308 13.835C0.169313 14.1452 -0.0011738 14.5593 4.68673e-05 14.9996C-0.000929734 15.4413 0.169313 15.8557 0.479552 16.1654Z" fill="#182B51"/>
</g>
<defs>
<clipPath id="clip0">
<rect width="30" height="30" fill="white" transform="translate(30 30) rotate(-180)"/>
</clipPath>
</defs>
</svg>
