<svg width="1600" height="932" viewBox="0 0 1600 932" fill="none" xmlns="http://www.w3.org/2000/svg">
<path fill-rule="evenodd" clip-rule="evenodd" d="M-391 262.632L-250.828 196.974C-110.169 131.316 170.662 0 451.493 0C731.838 0 1012.67 131.316 1293.5 164.026C1574.33 196.974 1855.16 131.316 2135.99 106.664C2416.34 82.0131 2697.17 98.3684 2837.83 106.664L2978 114.961V361H2837.83C2697.17 361 2416.34 361 2135.99 361C1855.16 361 1574.33 361 1293.5 361C1012.67 361 731.838 361 451.493 361C170.662 361 -110.169 361 -250.828 361H-391V262.632Z" fill="#182B51"/>
<path fill-rule="evenodd" clip-rule="evenodd" d="M2978 682.343L2837.83 744.647C2697.17 806.95 2416.34 931.557 2135.51 931.557C1855.16 931.557 1574.33 806.95 1293.5 775.911C1012.67 744.647 731.838 806.95 451.007 830.342C170.662 853.734 -110.169 838.214 -250.828 830.342L-391 822.47V589H-250.828C-110.169 589 170.662 589 451.007 589C731.838 589 1012.67 589 1293.5 589C1574.33 589 1855.16 589 2135.51 589C2416.34 589 2697.17 589 2837.83 589H2978V682.343Z" fill="#182B51"/>
<rect x="-391" y="324.193" width="3369" height="284.25" fill="#182B51"/>
</svg>
