<svg width="1597" height="850" viewBox="0 0 1597 850" fill="none" xmlns="http://www.w3.org/2000/svg">
<path d="M353.5 64.5503C222.7 90.9503 -16 75.5503 -119 64.5503C-110.167 282.717 -82.9 728.05 -44.5 764.05C3.5 809.05 196.5 869.55 294.5 843.05C392.5 816.55 571.5 759.05 683 788.55C794.5 818.05 1061 837.05 1367 843.05C1611.8 847.85 1739.67 745.717 1773 694.05C1841.83 410.05 1933.2 -120.95 1748 27.0503C1516.5 212.05 1311 56.5503 1044 14.5503C777 -27.4497 517 31.5503 353.5 64.5503Z" fill="#182B51"/>
<path d="M353.5 64.5503C222.7 90.9503 -16 75.5503 -119 64.5503C-110.167 282.717 -82.9 728.05 -44.5 764.05C3.5 809.05 196.5 869.55 294.5 843.05C392.5 816.55 571.5 759.05 683 788.55C794.5 818.05 1061 837.05 1367 843.05C1611.8 847.85 1739.67 745.717 1773 694.05C1841.83 410.05 1933.2 -120.95 1748 27.0503C1516.5 212.05 1311 56.5503 1044 14.5503C777 -27.4497 517 31.5503 353.5 64.5503Z" fill="url(#paint0_linear)"/>
<defs>
<linearGradient id="paint0_linear" x1="1174" y1="31.5" x2="569.5" y2="850" gradientUnits="userSpaceOnUse">
<stop stop-color="#0B4E81" stop-opacity="0.82"/>
<stop offset="1" stop-color="#182B51"/>
</linearGradient>
</defs>
</svg>
