<svg width="30" height="30" viewBox="0 0 30 30" fill="none" xmlns="http://www.w3.org/2000/svg">
<path d="M15 30C10.9932 30 7.22649 28.4397 4.39339 25.6066C1.56029 22.7735 0 19.0066 0 15C0 10.9934 1.56029 7.22649 4.39339 4.39339C7.22649 1.56029 10.9932 0 15 0C19.0066 0 22.7735 1.56029 25.6066 4.39339C28.4397 7.22649 30 10.9934 30 15C30 19.0066 28.4397 22.7735 25.6066 25.6066C22.7735 28.4397 19.0066 30 15 30ZM15 1.75781C7.69821 1.75781 1.75781 7.69821 1.75781 15C1.75781 22.3018 7.69821 28.2422 15 28.2422C22.3018 28.2422 28.2422 22.3018 28.2422 15C28.2422 7.69821 22.3018 1.75781 15 1.75781Z" fill="#09426D"/>
<path d="M13.1621 20.0701C12.9373 20.0701 12.7123 19.9843 12.5407 19.8126L7.83372 15.1057C7.4904 14.7626 7.4904 14.2059 7.83372 13.8629C8.17682 13.5195 8.73346 13.5195 9.07655 13.8629L13.1623 17.9484L20.9235 10.187C21.2666 9.84391 21.8232 9.84391 22.1663 10.187C22.5096 10.5303 22.5096 11.0867 22.1663 11.4301L13.7835 19.8129C13.6121 19.9843 13.3871 20.0701 13.1621 20.0701Z" fill="#91E1FF"/>
</svg>
