<svg width="6922" height="4249" viewBox="0 0 6922 4249" fill="none" xmlns="http://www.w3.org/2000/svg">
<path fill-rule="evenodd" clip-rule="evenodd" d="M0 208L144 312C288 415 577 623 865 727C1154 831 1442 831 1731 865C2019 900 2307 969 2596 831C2884 692 3173 346 3461 415C3749 485 4038 969 4326 1004C4615 1038 4903 623 5192 519C5480 415 5768 623 6057 588C6345 554 6634 277 6778 138L6922 0V2077H6778C6634 2077 6345 2077 6057 2077C5768 2077 5480 2077 5192 2077C4903 2077 4615 2077 4326 2077C4038 2077 3749 2077 3461 2077C3173 2077 2884 2077 2596 2077C2307 2077 2019 2077 1731 2077C1442 2077 1154 2077 865 2077C577 2077 288 2077 144 2077H0V208Z" fill="#182B51"/>
<path fill-rule="evenodd" clip-rule="evenodd" d="M6922 4249L6691 4076C6461 3903 5999 3557 5538 3487C5076 3418 4615 3626 4153 3626C3692 3626 3230 3418 2769 3383C2307 3349 1846 3487 1384 3453C923 3418 461 3210 231 3107L0 3003V2795H231C461 2795 923 2795 1384 2795C1846 2795 2307 2795 2769 2795C3230 2795 3692 2795 4153 2795C4615 2795 5076 2795 5538 2795C5999 2795 6461 2795 6691 2795H6922V4249Z" fill="#182B51"/>
<rect y="1602" width="6922" height="1273" fill="#182B51"/>
</svg>
