<svg width="40" height="40" viewBox="0 0 40 40" fill="none" xmlns="http://www.w3.org/2000/svg">
<g clip-path="url(#clip0)">
<path d="M18.0312 28.1752C14.9303 27.8518 12.1344 27.0881 9.74058 25.2159C9.44356 24.9829 9.1369 24.7584 8.86585 24.4982C7.81811 23.492 7.71253 22.3395 8.5416 21.1518C9.25085 20.1355 10.4415 19.8636 11.679 20.4472C11.9186 20.5603 12.1469 20.7015 12.3656 20.8531C16.8268 23.9184 22.9554 24.0031 27.4333 20.9909C27.877 20.6508 28.3512 20.3734 28.9008 20.2318C29.9695 19.9574 30.9662 20.35 31.5397 21.285C32.1949 22.3529 32.1865 23.3952 31.3792 24.2243C30.1409 25.4953 28.6516 26.4149 26.9968 27.0567C25.4321 27.6633 23.7182 27.9687 22.022 28.1714C22.2779 28.45 22.3986 28.587 22.5586 28.7479C24.8619 31.0621 27.1753 33.3666 29.471 35.6879C30.2531 36.4788 30.4165 37.4596 29.9859 38.3795C29.515 39.385 28.461 40.0465 27.4275 39.9757C26.7727 39.9304 26.262 39.6045 25.8083 39.1474C24.0701 37.3984 22.2993 35.6816 20.5964 33.8995C20.1008 33.3813 19.8624 33.4793 19.425 33.9292C17.6764 35.7294 15.8993 37.5019 14.1117 39.2643C13.309 40.0557 12.3539 40.1981 11.423 39.7461C10.4335 39.2664 9.80384 38.2564 9.85244 37.2413C9.88595 36.5547 10.2236 36.0302 10.6949 35.5597C12.9743 33.2837 15.2474 31.0017 17.5214 28.7219C17.6718 28.5703 17.8121 28.4094 18.0312 28.1752Z" fill="white" fill-opacity="0.9"/>
<path d="M19.9202 20.2466C14.3882 20.2277 9.85201 15.6417 9.88427 10.1009C9.9161 4.49895 14.4552 -0.0154607 20.0417 3.9797e-05C25.6394 0.0151213 30.1325 4.59446 30.1044 10.2546C30.0759 15.7841 25.5083 20.2659 19.9202 20.2466ZM24.9478 10.1143C24.9381 7.36318 22.7471 5.17301 20.0015 5.17049C17.2327 5.16756 15.022 7.39753 15.0434 10.1738C15.0639 12.9144 17.2738 15.0891 20.027 15.0791C22.7719 15.0694 24.957 12.865 24.9478 10.1143Z" fill="white" fill-opacity="0.9"/>
</g>
<defs>
<clipPath id="clip0">
<rect width="40" height="40" fill="white"/>
</clipPath>
</defs>
</svg>
