<svg width="40" height="40" viewBox="0 0 40 40" fill="none" xmlns="http://www.w3.org/2000/svg">
<g clip-path="url(#clip0)">
<path d="M33.1917 21.7135C32.545 20.8968 32.73 20.5335 33.1917 19.8035C33.2 19.7952 38.5383 12.4185 39.0883 9.91683L39.0917 9.91516C39.365 9.0035 39.0917 8.3335 37.77 8.3335H33.3967C32.2833 8.3335 31.77 8.9085 31.495 9.55183C31.495 9.55183 29.2683 14.8818 26.1183 18.3368C25.1017 19.3352 24.6317 19.6552 24.0767 19.6552C23.8033 19.6552 23.3783 19.3352 23.3783 18.4235V9.91516C23.3783 8.82183 23.0667 8.3335 22.145 8.3335H15.2683C14.57 8.3335 14.155 8.8435 14.155 9.3185C14.155 10.3552 15.73 10.5935 15.8933 13.5102V19.8385C15.8933 21.2252 15.6417 21.4802 15.0833 21.4802C13.5967 21.4802 9.98833 16.1285 7.85 10.0035C7.41833 8.81516 6.99667 8.33516 5.875 8.33516H1.5C0.251667 8.33516 0 8.91016 0 9.5535C0 10.6902 1.48667 16.3418 6.91333 23.8085C10.53 28.9052 15.6233 31.6668 20.2567 31.6668C23.0417 31.6668 23.3817 31.0535 23.3817 29.9985C23.3817 25.1285 23.13 24.6685 24.525 24.6685C25.1717 24.6685 26.285 24.9885 28.885 27.4468C31.8567 30.3618 32.345 31.6668 34.0083 31.6668H38.3817C39.6283 31.6668 40.26 31.0535 39.8967 29.8435C39.065 27.2985 33.445 22.0635 33.1917 21.7135Z" fill="white" fill-opacity="0.9"/>
</g>
<defs>
<clipPath id="clip0">
<rect width="40" height="40" fill="white"/>
</clipPath>
</defs>
</svg>
