<svg width="30" height="31" viewBox="0 0 30 31" fill="none" xmlns="http://www.w3.org/2000/svg">
<g clip-path="url(#clip0)">
<path d="M16.1228 24.1462L29.4334 10.7958C29.7415 10.487 29.9113 10.0749 29.9113 9.63534C29.9113 9.19584 29.7415 8.78364 29.4334 8.47487L28.4534 7.4917C27.8148 6.85195 26.7769 6.85195 26.1393 7.4917L14.9618 18.7023L3.77196 7.47926C3.46385 7.17049 3.05312 7 2.61516 7C2.17671 7 1.76598 7.17049 1.45762 7.47926L0.477858 8.46243C0.16975 8.77145 1.13487e-05 9.1834 1.13294e-05 9.6229C1.13102e-05 10.0624 0.16975 10.4746 0.477857 10.7834L13.8007 24.1462C14.1097 24.4557 14.5224 24.6257 14.9611 24.6247C15.4015 24.6257 15.8139 24.4557 16.1228 24.1462Z" fill="#182B51"/>
</g>
<defs>
<clipPath id="clip0">
<rect width="30" height="29.9112" fill="white" transform="translate(29.9556 0.955566) rotate(90)"/>
</clipPath>
</defs>
</svg>
