<svg width="374" height="185" viewBox="0 0 374 185" fill="none" xmlns="http://www.w3.org/2000/svg">
<path d="M21.216 48.168C23.008 45.672 25.408 43.784 28.416 42.504C31.488 41.224 35.008 40.584 38.976 40.584V54.408C37.312 54.28 36.192 54.216 35.616 54.216C31.328 54.216 27.968 55.432 25.536 57.864C23.104 60.232 21.888 63.816 21.888 68.616V93H6.912V41.352H21.216V48.168ZM98.004 67.368C98.004 67.56 97.908 68.904 97.716 71.4H58.644C59.348 74.6 61.012 77.128 63.636 78.984C66.26 80.84 69.524 81.768 73.428 81.768C76.116 81.768 78.484 81.384 80.532 80.616C82.644 79.784 84.596 78.504 86.388 76.776L94.356 85.416C89.492 90.984 82.388 93.768 73.044 93.768C67.22 93.768 62.068 92.648 57.588 90.408C53.108 88.104 49.652 84.936 47.22 80.904C44.788 76.872 43.572 72.296 43.572 67.176C43.572 62.12 44.756 57.576 47.124 53.544C49.556 49.448 52.852 46.28 57.012 44.04C61.236 41.736 65.94 40.584 71.124 40.584C76.18 40.584 80.756 41.672 84.852 43.848C88.948 46.024 92.148 49.16 94.452 53.256C96.82 57.288 98.004 61.992 98.004 67.368ZM71.22 51.912C67.828 51.912 64.98 52.872 62.676 54.792C60.372 56.712 58.964 59.336 58.452 62.664H83.892C83.38 59.4 81.972 56.808 79.668 54.888C77.364 52.904 74.548 51.912 71.22 51.912ZM174.119 40.584C180.583 40.584 185.703 42.504 189.479 46.344C193.319 50.12 195.239 55.816 195.239 63.432V93H180.263V65.736C180.263 61.64 179.399 58.6 177.671 56.616C176.007 54.568 173.607 53.544 170.471 53.544C166.951 53.544 164.167 54.696 162.119 57C160.071 59.24 159.047 62.6 159.047 67.08V93H144.071V65.736C144.071 57.608 140.807 53.544 134.279 53.544C130.823 53.544 128.071 54.696 126.023 57C123.975 59.24 122.951 62.6 122.951 67.08V93H107.975V41.352H122.279V47.304C124.199 45.128 126.535 43.464 129.286 42.312C132.103 41.16 135.175 40.584 138.503 40.584C142.151 40.584 145.447 41.32 148.391 42.792C151.335 44.2 153.703 46.28 155.495 49.032C157.607 46.344 160.263 44.264 163.463 42.792C166.727 41.32 170.279 40.584 174.119 40.584ZM233.801 93.768C228.361 93.768 223.465 92.648 219.113 90.408C214.825 88.104 211.465 84.936 209.033 80.904C206.601 76.872 205.385 72.296 205.385 67.176C205.385 62.056 206.601 57.48 209.033 53.448C211.465 49.416 214.825 46.28 219.113 44.04C223.465 41.736 228.361 40.584 233.801 40.584C239.241 40.584 244.105 41.736 248.393 44.04C252.681 46.28 256.041 49.416 258.473 53.448C260.905 57.48 262.121 62.056 262.121 67.176C262.121 72.296 260.905 76.872 258.473 80.904C256.041 84.936 252.681 88.104 248.393 90.408C244.105 92.648 239.241 93.768 233.801 93.768ZM233.801 81.48C237.641 81.48 240.777 80.2 243.209 77.64C245.705 75.016 246.953 71.528 246.953 67.176C246.953 62.824 245.705 59.368 243.209 56.808C240.777 54.184 237.641 52.872 233.801 52.872C229.961 52.872 226.793 54.184 224.297 56.808C221.801 59.368 220.553 62.824 220.553 67.176C220.553 71.528 221.801 75.016 224.297 77.64C226.793 80.2 229.961 81.48 233.801 81.48ZM303.523 40.584C309.923 40.584 315.075 42.504 318.979 46.344C322.947 50.184 324.931 55.88 324.931 63.432V93H309.955V65.736C309.955 61.64 309.059 58.6 307.267 56.616C305.475 54.568 302.883 53.544 299.491 53.544C295.715 53.544 292.707 54.728 290.467 57.096C288.227 59.4 287.107 62.856 287.107 67.464V93H272.131V41.352H286.435V47.4C288.419 45.224 290.883 43.56 293.827 42.408C296.771 41.192 300.003 40.584 303.523 40.584ZM371.818 90.504C370.346 91.592 368.522 92.424 366.346 93C364.234 93.512 361.994 93.768 359.626 93.768C353.482 93.768 348.714 92.2 345.322 89.064C341.994 85.928 340.33 81.32 340.33 75.24V54.024H332.362V42.504H340.33V29.928H355.306V42.504H368.17V54.024H355.306V75.048C355.306 77.224 355.85 78.92 356.938 80.136C358.09 81.288 359.69 81.864 361.738 81.864C364.106 81.864 366.122 81.224 367.786 79.944L371.818 90.504Z" fill="#182B51"/>
<path d="M6.912 89.768H21.888V161H6.912V89.768ZM91.947 135.368C91.947 135.56 91.851 136.904 91.659 139.4H52.587C53.291 142.6 54.955 145.128 57.579 146.984C60.203 148.84 63.467 149.768 67.371 149.768C70.059 149.768 72.427 149.384 74.475 148.616C76.587 147.784 78.539 146.504 80.331 144.776L88.299 153.416C83.435 158.984 76.331 161.768 66.987 161.768C61.163 161.768 56.011 160.648 51.531 158.408C47.051 156.104 43.595 152.936 41.163 148.904C38.731 144.872 37.515 140.296 37.515 135.176C37.515 130.12 38.699 125.576 41.067 121.544C43.499 117.448 46.795 114.28 50.955 112.04C55.179 109.736 59.883 108.584 65.067 108.584C70.123 108.584 74.699 109.672 78.795 111.848C82.891 114.024 86.091 117.16 88.395 121.256C90.763 125.288 91.947 129.992 91.947 135.368ZM65.163 119.912C61.771 119.912 58.923 120.872 56.619 122.792C54.315 124.712 52.907 127.336 52.395 130.664H77.835C77.323 127.4 75.915 124.808 73.611 122.888C71.307 120.904 68.491 119.912 65.163 119.912ZM160.766 109.352V152.36C160.766 161.832 158.302 168.872 153.374 173.48C148.446 178.088 141.246 180.392 131.774 180.392C126.782 180.392 122.046 179.784 117.566 178.568C113.086 177.352 109.374 175.592 106.43 173.288L112.382 162.536C114.558 164.328 117.31 165.736 120.638 166.76C123.966 167.848 127.294 168.392 130.622 168.392C135.806 168.392 139.614 167.208 142.046 164.84C144.542 162.536 145.79 159.016 145.79 154.28V152.072C141.886 156.36 136.446 158.504 129.47 158.504C124.734 158.504 120.382 157.48 116.414 155.432C112.51 153.32 109.406 150.376 107.102 146.6C104.798 142.824 103.646 138.472 103.646 133.544C103.646 128.616 104.798 124.264 107.102 120.488C109.406 116.712 112.51 113.8 116.414 111.752C120.382 109.64 124.734 108.584 129.47 108.584C136.958 108.584 142.654 111.048 146.558 115.976V109.352H160.766ZM132.446 146.216C136.414 146.216 139.646 145.064 142.142 142.76C144.702 140.392 145.982 137.32 145.982 133.544C145.982 129.768 144.702 126.728 142.142 124.424C139.646 122.056 136.414 120.872 132.446 120.872C128.478 120.872 125.214 122.056 122.654 124.424C120.094 126.728 118.814 129.768 118.814 133.544C118.814 137.32 120.094 140.392 122.654 142.76C125.214 145.064 128.478 146.216 132.446 146.216ZM202.448 140.744L195.248 147.848V161H180.272V89.768H195.248V130.088L217.136 109.352H234.992L213.488 131.24L236.912 161H218.768L202.448 140.744ZM271.541 161.768C266.101 161.768 261.205 160.648 256.853 158.408C252.565 156.104 249.205 152.936 246.773 148.904C244.341 144.872 243.125 140.296 243.125 135.176C243.125 130.056 244.341 125.48 246.773 121.448C249.205 117.416 252.565 114.28 256.853 112.04C261.205 109.736 266.101 108.584 271.541 108.584C276.981 108.584 281.845 109.736 286.133 112.04C290.421 114.28 293.781 117.416 296.213 121.448C298.645 125.48 299.861 130.056 299.861 135.176C299.861 140.296 298.645 144.872 296.213 148.904C293.781 152.936 290.421 156.104 286.133 158.408C281.845 160.648 276.981 161.768 271.541 161.768ZM271.541 149.48C275.381 149.48 278.517 148.2 280.949 145.64C283.445 143.016 284.693 139.528 284.693 135.176C284.693 130.824 283.445 127.368 280.949 124.808C278.517 122.184 275.381 120.872 271.541 120.872C267.701 120.872 264.533 122.184 262.037 124.808C259.541 127.368 258.293 130.824 258.293 135.176C258.293 139.528 259.541 143.016 262.037 145.64C264.533 148.2 267.701 149.48 271.541 149.48Z" fill="#182B51"/>
</svg>
